<svg width="16" height="20" viewBox="0 0 16 20" fill="none" xmlns="http://www.w3.org/2000/svg">
<path d="M8.2678 0C2.87057 0 0 3.51248 0 7.34245C0 9.1191 0.977426 11.3341 2.54229 12.0366C2.77925 12.1449 2.90842 12.0991 2.9619 11.8749C3.00797 11.7058 3.21366 10.8866 3.31321 10.4999C3.33095 10.4397 3.33261 10.3759 3.31801 10.3148C3.30341 10.2538 3.27308 10.1977 3.23011 10.1524C2.71014 9.54243 2.29794 8.43161 2.29794 7.38912C2.29794 4.71747 4.38937 2.12415 7.94775 2.12415C11.0248 2.12415 13.178 4.15414 13.178 7.05745C13.178 10.3391 11.4675 12.6091 9.24605 12.6091C8.01687 12.6091 7.10115 11.6291 7.39158 10.4174C7.74207 8.97327 8.42989 7.41995 8.42989 6.37912C8.42989 5.4458 7.91073 4.67247 6.85021 4.67247C5.59798 4.67247 4.58271 5.93079 4.58271 7.62161C4.58271 8.69577 4.95706 9.42077 4.95706 9.42077L3.48846 15.4491C3.0993 17.0557 3.54111 19.6574 3.57896 19.8807C3.60282 20.0049 3.73939 20.0432 3.81591 19.9424C3.93768 19.7799 5.43426 17.6107 5.85386 16.0432C6.00689 15.4716 6.633 13.1557 6.633 13.1557C7.0452 13.9116 8.23572 14.5457 9.50357 14.5457C13.2751 14.5457 16 11.1791 16 7.00162C15.986 2.99665 12.6111 0 8.2678 0Z" fill="#5C5F6A"/>
</svg>
