<svg width="20" height="18" viewBox="0 0 20 18" fill="none" xmlns="http://www.w3.org/2000/svg">
<path fill-rule="evenodd" clip-rule="evenodd" d="M1.37499 7.635C6.74332 5.29583 10.3233 3.75417 12.115 3.00917C17.2292 0.881666 18.2917 0.512499 18.985 0.499999C19.1367 0.496666 19.4775 0.534166 19.6983 0.713333C19.8842 0.864999 19.9358 1.06917 19.96 1.2125C19.985 1.35583 20.015 1.68167 19.9908 1.9375C19.7142 4.84917 18.515 11.9158 17.905 15.1775C17.6467 16.5575 17.1383 17.02 16.6467 17.0658C15.5767 17.1642 14.7642 16.3592 13.7283 15.68C12.1075 14.6175 11.1925 13.9558 9.61915 12.9192C7.80082 11.7208 8.97916 11.0625 10.0158 9.98583C10.2867 9.70417 14.9992 5.41833 15.09 5.02917C15.1017 4.98083 15.1117 4.8 15.0042 4.70417C14.8958 4.60833 14.7375 4.64083 14.6233 4.66667C14.46 4.70417 11.8708 6.41583 6.85499 9.80167C6.11999 10.3058 5.45415 10.5517 4.85749 10.5392C4.19999 10.525 2.93499 10.1675 1.99499 9.86167C0.841655 9.48667 -0.0750116 9.28833 0.00498842 8.65167C0.0466551 8.32 0.503322 7.98083 1.37499 7.635Z" fill="#5C5F6A"/>
</svg>
